<?xml version="1.0" encoding="utf-8"?>
<!DOCTYPE svg PUBLIC "-//W3C//DTD SVG 20010904//EN" "http://www.w3.org/TR/2001/REC-SVG-20010904/DTD/svg10.dtd">
<svg version="1.0" xmlns="http://www.w3.org/2000/svg" width="205px" height="73px" viewBox="0 0 205 73" preserveAspectRatio="xMidYMid meet">
 <g fill="#000000">
  <path d="M0 36.5 l0 -36.5 102.5 0 102.5 0 0 36.5 0 36.5 -102.5 0 -102.5 0 0 -36.5z m80 20.5 c2.3 -0.7 2.2 -0.8 -1.1 -0.9 -4.4 -0.1 -5.6 -1.5 -7.5 -8.3 -1.7 -6.6 -1.8 -14 -0.1 -15.7 1 -1.1 0.8 -1.2 -0.8 -0.3 -3 1.6 -7.2 6.3 -8.5 9.6 -1.9 5.1 1.8 11.7 8.4 14.7 4.4 2 5.8 2.1 9.6 0.9z m42 0 c2.3 -0.7 2.2 -0.8 -1.1 -0.9 -4.4 -0.1 -5.6 -1.5 -7.5 -8.3 -1.7 -6.6 -1.8 -14 -0.1 -15.7 1 -1.1 0.8 -1.2 -0.8 -0.3 -3 1.6 -7.2 6.3 -8.5 9.6 -1.9 5.1 1.8 11.7 8.4 14.7 4.4 2 5.8 2.1 9.6 0.9z m37.2 0.5 c0.9 -0.4 1.2 -2.2 1 -6.5 l-0.4 -6 3.5 0 c2.9 0 4.1 0.8 8.6 6 5.1 5.8 5.4 6 10.2 6 2.7 0 4.9 -0.4 4.9 -1 0 -0.5 -0.4 -1 -1 -1 -0.5 0 -3.2 -3 -6 -6.6 -4.2 -5.6 -5 -7.4 -5 -11 0 -3.3 0.5 -4.6 2.2 -5.8 2.8 -2 1.6 -3.3 -2 -2 -2.2 0.8 -2.8 1.6 -3 4.6 -0.2 2.9 -0.9 3.8 -3.1 4.8 -1.6 0.6 -4.4 1 -6.2 0.8 l-3.4 -0.3 -0.3 -11.2 c-0.1 -6.2 -0.6 -11.3 -1.1 -11.3 -0.4 0 -2.9 0.7 -5.5 1.6 -3 1 -4.3 1.9 -3.6 2.4 0.9 0.6 1.1 5.4 0.9 18.9 l-0.4 18.1 4.2 0 c2.3 0 4.7 -0.2 5.5 -0.5z m-130 -10.9 c-0.3 -5.7 0.1 -10.2 0.7 -11.5 0.8 -1.4 0.8 -2.1 0.1 -2.1 -0.6 0 -1 -3.2 -1 -8 0 -9 -0.5 -9.5 -7.7 -6.5 -2.8 1.2 -3.4 1.8 -2.5 2.7 0.8 0.8 1.2 6.2 1.2 17 l0 15.8 3.3 0 c2.3 0 6.2 1.2 6.2 2 0 0 -0.2 -4.2 -0.3 -9.4z m19.7 3.8 c4.8 -6.1 4.5 -12.2 -0.7 -17.6 -2.7 -3 -6 -3.5 -9.4 -1.7 -1.9 1 -1.9 1.2 1 2.9 2.5 1.5 3.2 2.8 3.8 6.5 0.3 2.5 0.4 6.8 0.2 9.5 -0.5 4.5 -0.3 4.8 1.3 4 0.9 -0.6 2.7 -2.2 3.8 -3.6z m41.8 0.4 c1.2 -1.2 2.6 -3.6 3.2 -5.1 3 -7.8 -8.8 -18 -18.3 -15.9 -2.9 0.6 -2.8 0.7 1.9 1.2 l4.9 0.5 1.9 6 c1.1 3.7 1.7 8.2 1.5 11.7 -0.3 6.2 0.4 6.4 4.9 1.6z m42 0 c1.2 -1.2 2.6 -3.6 3.2 -5.1 3 -7.8 -8.8 -18 -18.3 -15.9 -2.9 0.6 -2.8 0.7 1.9 1.2 l4.9 0.5 1.9 6 c1.2 3.9 1.7 8 1.5 11.7 -0.5 6.2 0.4 6.5 4.9 1.6z"/>
 </g>
 <g fill="#fcfbfd">
  <path d="M27.1 59 c-2.5 -1.1 -5.8 -1.9 -7.5 -1.8 l-2.9 0.3 0.2 -16.2 c0.2 -15.4 0.2 -16.2 -1.8 -17.5 -1.2 -0.7 -2.1 -2.3 -2.1 -3.6 0 -2.8 5.9 -5.7 13.8 -6.8 l5.2 -0.7 0 8.8 c0 4.7 0.3 8.5 0.8 8.3 8.9 -4.6 13.7 -4.7 18.4 -0.1 5.3 5.1 6.1 14.9 1.8 22 -4.9 8 -17.1 11.5 -25.9 7.3z m11.7 -5.2 c3.3 -4.3 2.5 -13.9 -1.5 -16.5 -2.4 -1.6 -2.6 -1.6 -3.9 0.2 -1.6 2.2 -1.9 11.2 -0.4 14.9 1 2.8 4.1 3.5 5.8 1.4z"/>
  <path d="M67.4 59.2 c-7.5 -3.6 -11.2 -12.4 -8.5 -20.5 2.3 -6.9 11.3 -12.7 19.6 -12.7 15.7 0 25.1 16 15.8 27 -5.8 7 -18.8 10 -26.9 6.2z m14.7 -7.8 c2.4 -2.9 -1.7 -17.4 -5 -17.4 -3.6 0 -4.5 2.5 -3.2 8.8 2 9.2 5.1 12.4 8.2 8.6z"/>
  <path d="M109.4 59.2 c-7.5 -3.6 -11.2 -12.4 -8.5 -20.5 2.3 -6.9 11.3 -12.7 19.6 -12.7 15.7 0 25.1 16 15.8 27 -5.8 7 -18.8 10 -26.9 6.2z m14.8 -8.7 c1.7 -3.8 -1.8 -15.9 -4.8 -16.3 -3.8 -0.5 -4.9 2.1 -3.5 8.6 2.1 9.6 5.8 13.1 8.3 7.7z"/>
  <path d="M144.8 59.9 c-1 -0.5 -1.8 -1.5 -1.8 -2.1 0 -0.6 0.8 -2 1.8 -3.1 1.4 -1.6 1.8 -4.3 2 -16.1 l0.4 -14.2 -2.7 -1.2 c-4.1 -1.9 -2.8 -4.4 3.6 -6.9 3.1 -1.2 7.5 -2.5 9.7 -2.9 l4.2 -0.7 0 11.6 c0 6.4 0.4 11.8 0.9 12.2 0.5 0.3 2.1 0 3.6 -0.7 2.1 -1 2.5 -1.6 2 -3.9 -0.8 -3.6 2.4 -5.9 8.5 -5.9 9.2 0 12.9 4.5 6 7.3 -2.2 0.8 -4.3 2.3 -4.6 3.1 -0.8 2.1 3.6 8.7 9.9 14.7 2.6 2.5 4.7 5.1 4.7 5.7 0 2.1 -3.9 3.2 -11.3 3.2 l-7.5 0 -5.6 -6.2 c-4.9 -5.6 -5.5 -6 -5.5 -3.8 0 1.4 0.6 3.4 1.4 4.4 2.1 2.8 1.9 4.1 -1 5.4 -3.2 1.5 -16.3 1.5 -18.7 0.1z"/>
 </g>
</svg>